<svg xmlns="http://www.w3.org/2000/svg" viewBox="0 0 64 64"><title>flow chart-business-presentation-process-plan</title><g id="Cartoon_Filled_outline" data-name="Cartoon Filled outline"><path d="M55.21,9.61c-8.16-.9-37.52-1.27-46.18-.07a6.893,6.893,0,0,0-6.08,5.58C2,20.59,1.72,42.85,2.35,48.51a6.488,6.488,0,0,0,5.84,5.78c5.26.54,15.82.92,26.07.92,7.97,0,15.75-.23,20.69-.77A6.921,6.921,0,0,0,60.93,49c1.14-4.88,1.53-25.2.34-33.75A6.637,6.637,0,0,0,55.21,9.61Z"/><path d="M61.27,15.25a6.637,6.637,0,0,0-6.06-5.64c-8.16-.9-37.52-1.27-46.18-.07a6.893,6.893,0,0,0-6.08,5.58C2,20.59,1.72,42.85,2.35,48.51a6.488,6.488,0,0,0,5.84,5.78c5.26.54,15.82.92,26.07.92,7.97,0,15.75-.23,20.69-.77A6.921,6.921,0,0,0,60.93,49C62.07,44.12,62.46,23.8,61.27,15.25ZM58.99,48.54a4.9,4.9,0,0,1-4.26,3.91c-11.19,1.23-37.07.81-46.33-.15a4.5,4.5,0,0,1-4.06-4.01c-.62-5.58-.35-27.45.58-32.82A4.922,4.922,0,0,1,9.3,11.52c3.72-.52,11.64-.73,19.98-.73,10.35,0,21.35.33,25.71.81a4.683,4.683,0,0,1,4.3,3.92C60.43,23.73,60.07,43.91,58.99,48.54Z"/><path d="M59.29,15.52a4.683,4.683,0,0,0-4.3-3.92c-4.36-.48-15.36-.81-25.71-.81-8.34,0-16.26.21-19.98.73a4.922,4.922,0,0,0-4.38,3.95c-.93,5.37-1.2,27.24-.58,32.82A4.5,4.5,0,0,0,8.4,52.3c9.26.96,35.14,1.38,46.33.15a4.9,4.9,0,0,0,4.26-3.91C60.07,43.91,60.43,23.73,59.29,15.52ZM9.85,47.31l-.82,1.72a.493.493,0,0,1-.45.29.537.537,0,0,1-.21-.05.5.5,0,0,1-.24-.67l.82-1.72a.5.5,0,1,1,.9.43Zm0-4.32-.82,1.72a.483.483,0,0,1-.45.28.522.522,0,0,1-.21-.04.5.5,0,0,1-.24-.67l.82-1.72a.5.5,0,1,1,.9.43Zm1.91,4.33-.75,1.9a.5.5,0,0,1-.46.31.582.582,0,0,1-.19-.03.506.506,0,0,1-.28-.65l.75-1.9a.49.49,0,0,1,.65-.28A.5.5,0,0,1,11.76,47.32Zm.05-4.28-.75,1.9a.506.506,0,0,1-.47.32.392.392,0,0,1-.18-.04.49.49,0,0,1-.28-.65l.75-1.9a.5.5,0,1,1,.93.37Zm11.24,5.75h-.01l-10.02-.23a.5.5,0,0,1-.49-.52.47.47,0,0,1,.51-.48l10.03.23a.487.487,0,0,1,.48.51A.5.5,0,0,1,23.05,48.79Zm0-4.32h-.01l-10.02-.24a.489.489,0,0,1-.49-.51.515.515,0,0,1,.51-.49l10.03.24a.487.487,0,0,1,.48.51A.5.5,0,0,1,23.05,44.47ZM53.24,33.79a10.831,10.831,0,0,1-1.99.25l-.17,4.82c.14-.14.28-.28.41-.43a.5.5,0,0,1,.71-.04.514.514,0,0,1,.04.71q-.375.42-.78.81a1.807,1.807,0,0,1-.28.24c.1.03.21.05.31.09a18.744,18.744,0,0,1,5.27,3.36,1.938,1.938,0,0,1,.63,1.51,1.99,1.99,0,0,1-.75,1.52,24.764,24.764,0,0,1-5.11,3.14,2.759,2.759,0,0,1-1.19.27,2.886,2.886,0,0,1-1.27-.3,22.739,22.739,0,0,1-4.92-3.19,1.858,1.858,0,0,1-.49-.69l-.01.01a3.012,3.012,0,0,1-1.06.98.533.533,0,0,1-.24.06.5.5,0,0,1-.24-.94,1.887,1.887,0,0,0,.55-.47c-2.49-.01-4.57.02-7.28-.13a2.571,2.571,0,0,1-1.62-.5,3.282,3.282,0,0,1-.84-2.4,17.625,17.625,0,0,1-.01-2.06c-1.23-.03-2.43-.09-3.51-.2a2.579,2.579,0,0,1-2.36-2.16,22.358,22.358,0,0,1-.03-5.66,2.538,2.538,0,0,1,2.24-2.16,36.032,36.032,0,0,1,3.82-.19.219.219,0,0,1-.05-.03,2.959,2.959,0,0,1-.98-1.07.5.5,0,0,1,.88-.48,1.963,1.963,0,0,0,.38.48l-.03-3.07c-1.35-.02-2.68-.09-3.87-.2a2.579,2.579,0,0,1-2.36-2.16,21.44,21.44,0,0,1-.17-2.17.717.717,0,0,1-.07.11,3.012,3.012,0,0,1-1.06.98.533.533,0,0,1-.24.06.489.489,0,0,1-.44-.26.506.506,0,0,1,.2-.68,2.265,2.265,0,0,0,.4-.29l-5.49.03a21.508,21.508,0,0,1-.23,2.31,2.6,2.6,0,0,1-2.4,2.13c-1.17.09-2.44.14-3.73.14l.03,2.83c.13-.14.27-.28.4-.42a.5.5,0,0,1,.71-.04.5.5,0,0,1,.04.7c-.25.28-.51.55-.78.82a1.763,1.763,0,0,1-.29.24,2.963,2.963,0,0,1,.58.17,19.078,19.078,0,0,1,5.27,3.35,1.973,1.973,0,0,1,.63,1.52,2.022,2.022,0,0,1-.75,1.52,24.848,24.848,0,0,1-5.12,3.14,2.674,2.674,0,0,1-1.18.26,2.843,2.843,0,0,1-1.27-.29,22.5,22.5,0,0,1-4.92-3.19,2.011,2.011,0,0,1-.66-1.45,2.04,2.04,0,0,1,.62-1.48,19.771,19.771,0,0,1,5.09-3.34,4.36,4.36,0,0,1,.58-.19,1.462,1.462,0,0,1-.15-.09,3.012,3.012,0,0,1-.98-1.06.5.5,0,0,1,.2-.68.492.492,0,0,1,.68.2,1.959,1.959,0,0,0,.3.41l-.03-2.93c-1.31-.02-2.61-.09-3.77-.2a2.579,2.579,0,0,1-2.36-2.16,22.831,22.831,0,0,1-.03-5.66A2.549,2.549,0,0,1,8.9,15.69a50.612,50.612,0,0,1,8.88.01,2.532,2.532,0,0,1,2.25,2.25,20.715,20.715,0,0,1,.15,2.34l5.4-.03c-.15-.14-.29-.28-.43-.41a.5.5,0,0,1,.66-.75c.28.25.55.51.82.78a2.19,2.19,0,0,1,.23.26,18.35,18.35,0,0,1,.15-2.29,2.538,2.538,0,0,1,2.24-2.16,50.617,50.617,0,0,1,8.88.01,2.552,2.552,0,0,1,2.26,2.25,21,21,0,0,1,.14,2.22c2.64-.03,5.07-.05,7.2-.03a6.316,6.316,0,0,1,2.66.41,2.134,2.134,0,0,1,1.02,2.11v.15c.14-.14.28-.28.41-.43a.5.5,0,0,1,.75.67q-.375.42-.78.81a1.632,1.632,0,0,1-.2.17,9.541,9.541,0,0,1,1.09.14c3.04.56,5.34,2.51,5.47,4.65C58.29,30.98,56.22,33.07,53.24,33.79Z" style="fill:#f4f4e6"/><path d="M51.49,40.24c-.1-.04-.21-.06-.31-.09a1.807,1.807,0,0,0,.28-.24q.4-.39.78-.81a.514.514,0,0,0-.04-.71.5.5,0,0,0-.71.04c-.13.15-.27.29-.41.43l.17-4.82a10.831,10.831,0,0,0,1.99-.25c2.98-.72,5.05-2.81,4.91-4.97-.13-2.14-2.43-4.09-5.47-4.65a9.541,9.541,0,0,0-1.09-.14,1.632,1.632,0,0,0,.2-.17q.405-.39.78-.81a.5.5,0,0,0-.75-.67c-.13.15-.27.29-.41.43v-.15a2.134,2.134,0,0,0-1.02-2.11,6.316,6.316,0,0,0-2.66-.41c-2.13-.02-4.56,0-7.2.03a21,21,0,0,0-.14-2.22,2.552,2.552,0,0,0-2.26-2.25,50.617,50.617,0,0,0-8.88-.01,2.538,2.538,0,0,0-2.24,2.16,18.35,18.35,0,0,0-.15,2.29,2.19,2.19,0,0,0-.23-.26c-.27-.27-.54-.53-.82-.78a.5.5,0,0,0-.66.75c.14.13.28.27.43.41l-5.4.03a20.715,20.715,0,0,0-.15-2.34,2.532,2.532,0,0,0-2.25-2.25,50.612,50.612,0,0,0-8.88-.01,2.549,2.549,0,0,0-2.25,2.16,22.831,22.831,0,0,0,.03,5.66,2.579,2.579,0,0,0,2.36,2.16c1.16.11,2.46.18,3.77.2l.03,2.93a1.959,1.959,0,0,1-.3-.41.492.492,0,0,0-.68-.2.5.5,0,0,0-.2.68,3.012,3.012,0,0,0,.98,1.06,1.462,1.462,0,0,0,.15.09,4.36,4.36,0,0,0-.58.19,19.771,19.771,0,0,0-5.09,3.34,2.04,2.04,0,0,0-.62,1.48,2.011,2.011,0,0,0,.66,1.45,22.5,22.5,0,0,0,4.92,3.19,2.843,2.843,0,0,0,1.27.29,2.674,2.674,0,0,0,1.18-.26,24.848,24.848,0,0,0,5.12-3.14,2.022,2.022,0,0,0,.75-1.52,1.973,1.973,0,0,0-.63-1.52,19.078,19.078,0,0,0-5.27-3.35,2.963,2.963,0,0,0-.58-.17,1.763,1.763,0,0,0,.29-.24c.27-.27.53-.54.78-.82a.5.5,0,0,0-.04-.7.5.5,0,0,0-.71.04c-.13.14-.27.28-.4.42l-.03-2.83c1.29,0,2.56-.05,3.73-.14a2.6,2.6,0,0,0,2.4-2.13,21.508,21.508,0,0,0,.23-2.31l5.49-.03a2.265,2.265,0,0,1-.4.29.506.506,0,0,0-.2.68.489.489,0,0,0,.44.26.533.533,0,0,0,.24-.06,3.012,3.012,0,0,0,1.06-.98.717.717,0,0,0,.07-.11,21.44,21.44,0,0,0,.17,2.17,2.579,2.579,0,0,0,2.36,2.16c1.19.11,2.52.18,3.87.2l.03,3.07a1.963,1.963,0,0,1-.38-.48.5.5,0,0,0-.88.48,2.959,2.959,0,0,0,.98,1.07.219.219,0,0,0,.05.03,36.032,36.032,0,0,0-3.82.19,2.538,2.538,0,0,0-2.24,2.16,22.358,22.358,0,0,0,.03,5.66,2.579,2.579,0,0,0,2.36,2.16c1.08.11,2.28.17,3.51.2a17.625,17.625,0,0,0,.01,2.06,3.282,3.282,0,0,0,.84,2.4,2.571,2.571,0,0,0,1.62.5c2.71.15,4.79.12,7.28.13a1.887,1.887,0,0,1-.55.47.5.5,0,0,0,.24.94.533.533,0,0,0,.24-.06,3.012,3.012,0,0,0,1.06-.98l.01-.01a1.858,1.858,0,0,0,.49.69,22.739,22.739,0,0,0,4.92,3.19,2.886,2.886,0,0,0,1.27.3,2.759,2.759,0,0,0,1.19-.27,24.764,24.764,0,0,0,5.11-3.14,1.99,1.99,0,0,0,.75-1.52,1.938,1.938,0,0,0-.63-1.51A18.744,18.744,0,0,0,51.49,40.24ZM13.94,31.56a17.55,17.55,0,0,1,4.82,3.07.475.475,0,0,1,.14.36.512.512,0,0,1-.19.4,23.5,23.5,0,0,1-4.82,2.95,1.327,1.327,0,0,1-1.15-.02,21.288,21.288,0,0,1-4.59-2.96A.536.536,0,0,1,8,35.01a.515.515,0,0,1,.15-.36,17.983,17.983,0,0,1,4.68-3.07,1.435,1.435,0,0,1,.58-.12A1.46,1.46,0,0,1,13.94,31.56Zm4.52-8.21a1.135,1.135,0,0,1-1.05.89,50.092,50.092,0,0,1-8.22-.07,1.065,1.065,0,0,1-1.02-.86,21.146,21.146,0,0,1-.03-5.27,1.044,1.044,0,0,1,.94-.86A36.258,36.258,0,0,1,13.05,17c1.61,0,3.29.06,4.57.19a1.072,1.072,0,0,1,.93.94A18.152,18.152,0,0,1,18.46,23.35Zm33.95,2.29c2.33.43,4.15,1.84,4.24,3.27.09,1.41-1.53,2.88-3.76,3.42a8.891,8.891,0,0,1-6.94-1.18,2.445,2.445,0,0,1-1.11-2.53c.34-1.38,1.96-2.53,4.12-2.94a9.485,9.485,0,0,1,1.84-.18A9.276,9.276,0,0,1,52.41,25.64ZM29.54,24.17a1.063,1.063,0,0,1-1.01-.86,21.645,21.645,0,0,1-.04-5.27,1.044,1.044,0,0,1,.94-.86A36.33,36.33,0,0,1,33.41,17c1.6,0,3.28.06,4.57.19a1.053,1.053,0,0,1,.92.94,18.152,18.152,0,0,1-.09,5.22,1.114,1.114,0,0,1-1.04.89A50.2,50.2,0,0,1,29.54,24.17Zm0,14.55a1.083,1.083,0,0,1-1.01-.87,21.563,21.563,0,0,1-.04-5.26,1.043,1.043,0,0,1,.94-.87,36.33,36.33,0,0,1,3.98-.18,45.38,45.38,0,0,1,4.57.2,1.034,1.034,0,0,1,.92.94,18.09,18.09,0,0,1-.09,5.21,1.1,1.1,0,0,1-1.04.89A51.347,51.347,0,0,1,29.54,38.72Zm14.58,4.91a1.81,1.81,0,0,0-.51.82c-.05-.05-.09-.11-.13-.15-.27-.27-.54-.53-.82-.78a.515.515,0,0,0-.71.04.506.506,0,0,0,.05.71c.08.07.16.15.24.23-2.29,0-4.28.01-6.8-.12a1.706,1.706,0,0,1-1.03-.27,2.577,2.577,0,0,1-.5-1.72,18.476,18.476,0,0,1,0-1.97h.12c1.33,0,2.66-.05,3.86-.15a2.591,2.591,0,0,0,2.4-2.13,19.346,19.346,0,0,0,.1-5.65,2.552,2.552,0,0,0-2.26-2.25c-1.08-.11-2.43-.17-3.79-.19a1.787,1.787,0,0,0,.25-.22q.4-.39.78-.81a.5.5,0,0,0-.75-.67c-.1.12-.22.23-.33.35l-.02-2.83c1.25,0,2.49-.05,3.62-.14a2.591,2.591,0,0,0,2.4-2.13,17.547,17.547,0,0,0,.24-2.43c2.64-.04,5.07-.05,7.2-.03a6.27,6.27,0,0,1,2.2.29c.35.19.48.52.48,1.22v.25a2.547,2.547,0,0,1-.3-.41.5.5,0,0,0-.87.48,2.965,2.965,0,0,0,.96,1.06,12.849,12.849,0,0,0-1.52.17c-2.78.54-4.81,2.09-5.29,4.06a3.936,3.936,0,0,0,1.62,4.06,9.441,9.441,0,0,0,5.24,1.73l-.17,4.89a1.637,1.637,0,0,1-.29-.4.5.5,0,0,0-.88.48,2.992,2.992,0,0,0,.97,1.06,3.338,3.338,0,0,0-.68.21A19.543,19.543,0,0,0,44.12,43.63Zm11.59,1.83a23.436,23.436,0,0,1-4.83,2.96,1.3,1.3,0,0,1-1.15-.03,20.6,20.6,0,0,1-4.58-2.96.44.44,0,0,1-.15-.35.467.467,0,0,1,.14-.36,18.241,18.241,0,0,1,4.68-3.07,1.47,1.47,0,0,1,.58-.12,1.386,1.386,0,0,1,.53.1,17.356,17.356,0,0,1,4.82,3.08.43.43,0,0,1,.14.36A.515.515,0,0,1,55.71,45.46Z"/><path d="M55.75,44.71a17.356,17.356,0,0,0-4.82-3.08,1.386,1.386,0,0,0-.53-.1,1.47,1.47,0,0,0-.58.12,18.241,18.241,0,0,0-4.68,3.07.467.467,0,0,0-.14.36.44.44,0,0,0,.15.35,20.6,20.6,0,0,0,4.58,2.96,1.3,1.3,0,0,0,1.15.03,23.436,23.436,0,0,0,4.83-2.96.515.515,0,0,0,.18-.39A.43.43,0,0,0,55.75,44.71Zm-6.52-.48-.59,1.44a.484.484,0,0,1-.46.31.628.628,0,0,1-.19-.03.5.5,0,0,1-.27-.66l.58-1.44a.5.5,0,0,1,.93.38ZM51,44.17l-.76,1.92a.5.5,0,0,1-.46.32.585.585,0,0,1-.19-.04.5.5,0,0,1-.28-.65l.76-1.91a.5.5,0,0,1,.65-.28A.49.49,0,0,1,51,44.17Zm1.69.11-.58,1.44a.512.512,0,0,1-.47.31.392.392,0,0,1-.18-.04.5.5,0,0,1-.28-.65l.59-1.44a.5.5,0,1,1,.92.38Z" style="fill:#55b56a"/><path d="M18.76,34.63a17.55,17.55,0,0,0-4.82-3.07,1.46,1.46,0,0,0-.53-.1,1.435,1.435,0,0,0-.58.12,17.983,17.983,0,0,0-4.68,3.07.515.515,0,0,0-.15.36.536.536,0,0,0,.15.35,21.288,21.288,0,0,0,4.59,2.96,1.327,1.327,0,0,0,1.15.02,23.5,23.5,0,0,0,4.82-2.95.512.512,0,0,0,.19-.4A.475.475,0,0,0,18.76,34.63Zm-6.51-.57-.58,1.44a.512.512,0,0,1-.47.31.464.464,0,0,1-.19-.04.493.493,0,0,1-.27-.65l.59-1.44a.485.485,0,0,1,.65-.27A.493.493,0,0,1,12.25,34.06ZM14.02,34l-.76,1.92a.489.489,0,0,1-.46.31.628.628,0,0,1-.19-.03.506.506,0,0,1-.28-.65l.76-1.92a.514.514,0,0,1,.65-.28A.5.5,0,0,1,14.02,34Zm1.7.1-.59,1.45a.509.509,0,0,1-.46.31.406.406,0,0,1-.19-.04.5.5,0,0,1-.28-.65l.59-1.44a.5.5,0,1,1,.93.37Z" style="fill:#55b56a"/><path d="M38.9,32.68a1.034,1.034,0,0,0-.92-.94,45.38,45.38,0,0,0-4.57-.2,36.33,36.33,0,0,0-3.98.18,1.043,1.043,0,0,0-.94.87,21.563,21.563,0,0,0,.04,5.26,1.083,1.083,0,0,0,1.01.87,51.347,51.347,0,0,0,8.23.06,1.1,1.1,0,0,0,1.04-.89A18.09,18.09,0,0,0,38.9,32.68Zm-6.15,1.67-.59,1.45a.509.509,0,0,1-.46.31.406.406,0,0,1-.19-.04.5.5,0,0,1-.28-.65l.59-1.44a.5.5,0,0,1,.65-.28A.5.5,0,0,1,32.75,34.35Zm1.77-.05-.76,1.91a.506.506,0,0,1-.47.32.566.566,0,0,1-.18-.03.5.5,0,0,1-.28-.65l.76-1.92a.5.5,0,0,1,.65-.28A.506.506,0,0,1,34.52,34.3Zm1.69.1-.59,1.44a.475.475,0,0,1-.46.31.628.628,0,0,1-.19-.03.5.5,0,0,1-.27-.65l.58-1.45a.517.517,0,0,1,.66-.27A.505.505,0,0,1,36.21,34.4Z" style="fill:#fcf05a"/><path d="M52.41,25.64a9.276,9.276,0,0,0-1.61-.14,9.485,9.485,0,0,0-1.84.18c-2.16.41-3.78,1.56-4.12,2.94a2.445,2.445,0,0,0,1.11,2.53,8.891,8.891,0,0,0,6.94,1.18c2.23-.54,3.85-2.01,3.76-3.42C56.56,27.48,54.74,26.07,52.41,25.64Zm-2.66,2.7-.59,1.44a.484.484,0,0,1-.46.31.628.628,0,0,1-.19-.03.5.5,0,0,1-.27-.66l.58-1.44a.5.5,0,0,1,.93.38Zm1.77-.05-.76,1.91a.5.5,0,0,1-.46.32.585.585,0,0,1-.19-.04.5.5,0,0,1-.28-.65l.76-1.91a.5.5,0,1,1,.93.37Zm1.69.1-.58,1.44a.512.512,0,0,1-.47.31.392.392,0,0,1-.18-.04.5.5,0,0,1-.28-.65l.59-1.44a.5.5,0,0,1,.92.38Z" style="fill:#f98c96"/><path d="M38.9,18.13a1.053,1.053,0,0,0-.92-.94c-1.29-.13-2.97-.19-4.57-.19a36.33,36.33,0,0,0-3.98.18,1.044,1.044,0,0,0-.94.86,21.645,21.645,0,0,0,.04,5.27,1.063,1.063,0,0,0,1.01.86,50.2,50.2,0,0,0,8.23.07,1.114,1.114,0,0,0,1.04-.89A18.152,18.152,0,0,0,38.9,18.13Zm-6.15,1.89-.59,1.45a.509.509,0,0,1-.46.31.406.406,0,0,1-.19-.04.5.5,0,0,1-.28-.65l.59-1.44a.5.5,0,0,1,.65-.28A.5.5,0,0,1,32.75,20.02Zm1.77-.05-.76,1.91a.506.506,0,0,1-.47.32.566.566,0,0,1-.18-.03.5.5,0,0,1-.28-.65l.76-1.92a.5.5,0,0,1,.65-.28A.506.506,0,0,1,34.52,19.97Zm1.69.1-.59,1.44a.475.475,0,0,1-.46.31.628.628,0,0,1-.19-.03.5.5,0,0,1-.27-.65l.58-1.45a.508.508,0,0,1,.66-.27A.5.5,0,0,1,36.21,20.07Z" style="fill:#fcf05a"/><path d="M18.55,18.13a1.072,1.072,0,0,0-.93-.94c-1.28-.13-2.96-.19-4.57-.19a36.258,36.258,0,0,0-3.97.18,1.044,1.044,0,0,0-.94.86,21.146,21.146,0,0,0,.03,5.27,1.065,1.065,0,0,0,1.02.86,50.092,50.092,0,0,0,8.22.07,1.135,1.135,0,0,0,1.05-.89A18.152,18.152,0,0,0,18.55,18.13Zm-6.3,2.04-.58,1.44a.506.506,0,0,1-.47.32.719.719,0,0,1-.19-.04.5.5,0,0,1-.27-.65l.59-1.45a.5.5,0,1,1,.92.38Zm1.77-.05-.76,1.91a.484.484,0,0,1-.46.32.433.433,0,0,1-.19-.04.506.506,0,0,1-.28-.65l.76-1.91a.5.5,0,0,1,.65-.28A.49.49,0,0,1,14.02,20.12Zm1.7.1-.59,1.44a.494.494,0,0,1-.46.31.582.582,0,0,1-.19-.03.512.512,0,0,1-.28-.66l.59-1.44a.492.492,0,0,1,.65-.27A.5.5,0,0,1,15.72,20.22Z" style="fill:#fcf05a"/><path d="M49.24,22.97a2.965,2.965,0,0,0,.96,1.06,12.849,12.849,0,0,0-1.52.17c-2.78.54-4.81,2.09-5.29,4.06a3.936,3.936,0,0,0,1.62,4.06,9.441,9.441,0,0,0,5.24,1.73l-.17,4.89a1.637,1.637,0,0,1-.29-.4.5.5,0,0,0-.88.48,2.992,2.992,0,0,0,.97,1.06,3.338,3.338,0,0,0-.68.21,19.543,19.543,0,0,0-5.08,3.34,1.81,1.81,0,0,0-.51.82c-.05-.05-.09-.11-.13-.15-.27-.27-.54-.53-.82-.78a.515.515,0,0,0-.71.04.506.506,0,0,0,.05.71c.08.07.16.15.24.23-2.29,0-4.28.01-6.8-.12a1.706,1.706,0,0,1-1.03-.27,2.577,2.577,0,0,1-.5-1.72,18.476,18.476,0,0,1,0-1.97h.12c1.33,0,2.66-.05,3.86-.15a2.591,2.591,0,0,0,2.4-2.13,19.346,19.346,0,0,0,.1-5.65,2.552,2.552,0,0,0-2.26-2.25c-1.08-.11-2.43-.17-3.79-.19a1.787,1.787,0,0,0,.25-.22q.4-.39.78-.81a.5.5,0,0,0-.75-.67c-.1.12-.22.23-.33.35l-.02-2.83c1.25,0,2.49-.05,3.62-.14a2.591,2.591,0,0,0,2.4-2.13,17.547,17.547,0,0,0,.24-2.43c2.64-.04,5.07-.05,7.2-.03a6.27,6.27,0,0,1,2.2.29c.35.19.48.52.48,1.22v.25a2.547,2.547,0,0,1-.3-.41.5.5,0,0,0-.87.48Z" style="fill:#f4f4e6"/><path d="M9.85,42.99l-.82,1.72a.483.483,0,0,1-.45.28.522.522,0,0,1-.21-.04.5.5,0,0,1-.24-.67l.82-1.72a.5.5,0,1,1,.9.43Z"/><path d="M11.81,43.04l-.75,1.9a.506.506,0,0,1-.47.32.392.392,0,0,1-.18-.04.49.49,0,0,1-.28-.65l.75-1.9a.5.5,0,1,1,.93.37Z"/><path d="M23.55,43.98a.5.5,0,0,1-.5.49h-.01l-10.02-.24a.489.489,0,0,1-.49-.51.515.515,0,0,1,.51-.49l10.03.24A.487.487,0,0,1,23.55,43.98Z"/><path d="M9.85,47.31l-.82,1.72a.493.493,0,0,1-.45.29.537.537,0,0,1-.21-.05.5.5,0,0,1-.24-.67l.82-1.72a.5.5,0,1,1,.9.43Z"/><path d="M11.76,47.32l-.75,1.9a.5.5,0,0,1-.46.31.582.582,0,0,1-.19-.03.506.506,0,0,1-.28-.65l.75-1.9a.49.49,0,0,1,.65-.28A.5.5,0,0,1,11.76,47.32Z"/><path d="M23.55,48.3a.5.5,0,0,1-.5.49h-.01l-10.02-.23a.5.5,0,0,1-.49-.52.47.47,0,0,1,.51-.48l10.03.23A.487.487,0,0,1,23.55,48.3Z"/><path d="M12.25,20.17l-.58,1.44a.506.506,0,0,1-.47.32.719.719,0,0,1-.19-.04.5.5,0,0,1-.27-.65l.59-1.45a.5.5,0,1,1,.92.38Z"/><path d="M15.72,20.22l-.59,1.44a.494.494,0,0,1-.46.31.582.582,0,0,1-.19-.03.512.512,0,0,1-.28-.66l.59-1.44a.492.492,0,0,1,.65-.27A.5.5,0,0,1,15.72,20.22Z"/><path d="M14.02,20.12l-.76,1.91a.484.484,0,0,1-.46.32.433.433,0,0,1-.19-.04.506.506,0,0,1-.28-.65l.76-1.91a.5.5,0,0,1,.65-.28A.49.49,0,0,1,14.02,20.12Z"/><path d="M12.25,34.06l-.58,1.44a.512.512,0,0,1-.47.31.464.464,0,0,1-.19-.04.493.493,0,0,1-.27-.65l.59-1.44a.485.485,0,0,1,.65-.27A.493.493,0,0,1,12.25,34.06Z"/><path d="M15.72,34.1l-.59,1.45a.509.509,0,0,1-.46.31.406.406,0,0,1-.19-.04.5.5,0,0,1-.28-.65l.59-1.44a.5.5,0,1,1,.93.37Z"/><path d="M14.02,34l-.76,1.92a.489.489,0,0,1-.46.31.628.628,0,0,1-.19-.03.506.506,0,0,1-.28-.65l.76-1.92a.514.514,0,0,1,.65-.28A.5.5,0,0,1,14.02,34Z"/><path d="M32.75,20.02l-.59,1.45a.509.509,0,0,1-.46.31.406.406,0,0,1-.19-.04.5.5,0,0,1-.28-.65l.59-1.44a.5.5,0,0,1,.65-.28A.5.5,0,0,1,32.75,20.02Z"/><path d="M36.21,20.07l-.59,1.44a.475.475,0,0,1-.46.31.628.628,0,0,1-.19-.03.5.5,0,0,1-.27-.65l.58-1.45a.508.508,0,0,1,.66-.27A.5.5,0,0,1,36.21,20.07Z"/><path d="M34.52,19.97l-.76,1.91a.506.506,0,0,1-.47.32.566.566,0,0,1-.18-.03.5.5,0,0,1-.28-.65l.76-1.92a.5.5,0,0,1,.65-.28A.506.506,0,0,1,34.52,19.97Z"/><path d="M32.75,34.35l-.59,1.45a.509.509,0,0,1-.46.31.406.406,0,0,1-.19-.04.5.5,0,0,1-.28-.65l.59-1.44a.5.5,0,0,1,.65-.28A.5.5,0,0,1,32.75,34.35Z"/><path d="M36.21,34.4l-.59,1.44a.475.475,0,0,1-.46.31.628.628,0,0,1-.19-.03.5.5,0,0,1-.27-.65l.58-1.45a.517.517,0,0,1,.66-.27A.505.505,0,0,1,36.21,34.4Z"/><path d="M34.52,34.3l-.76,1.91a.506.506,0,0,1-.47.32.566.566,0,0,1-.18-.03.5.5,0,0,1-.28-.65l.76-1.92a.5.5,0,0,1,.65-.28A.506.506,0,0,1,34.52,34.3Z"/><path d="M49.75,28.34l-.59,1.44a.484.484,0,0,1-.46.31.628.628,0,0,1-.19-.03.5.5,0,0,1-.27-.66l.58-1.44a.5.5,0,0,1,.93.38Z"/><path d="M53.21,28.39l-.58,1.44a.512.512,0,0,1-.47.31.392.392,0,0,1-.18-.04.5.5,0,0,1-.28-.65l.59-1.44a.5.5,0,0,1,.92.38Z"/><path d="M51.52,28.29l-.76,1.91a.5.5,0,0,1-.46.32.585.585,0,0,1-.19-.04.5.5,0,0,1-.28-.65l.76-1.91a.5.5,0,1,1,.93.37Z"/><path d="M49.23,44.23l-.59,1.44a.484.484,0,0,1-.46.31.628.628,0,0,1-.19-.03.5.5,0,0,1-.27-.66l.58-1.44a.5.5,0,0,1,.93.38Z"/><path d="M52.69,44.28l-.58,1.44a.512.512,0,0,1-.47.31.392.392,0,0,1-.18-.04.5.5,0,0,1-.28-.65l.59-1.44a.5.5,0,1,1,.92.38Z"/><path d="M51,44.17l-.76,1.92a.5.5,0,0,1-.46.32.585.585,0,0,1-.19-.04.5.5,0,0,1-.28-.65l.76-1.91a.5.5,0,0,1,.65-.28A.49.49,0,0,1,51,44.17Z"/></g></svg>